<?xml version="1.0" encoding="utf-8"?>
<!-- Generator: Adobe Illustrator 26.0.3, SVG Export Plug-In . SVG Version: 6.00 Build 0)  -->
<svg version="1.1" id="Слой_1" xmlns="http://www.w3.org/2000/svg" xmlns:xlink="http://www.w3.org/1999/xlink" x="0px" y="0px"
	 viewBox="0 0 196.8 44.1" style="enable-background:new 0 0 196.8 44.1;" xml:space="preserve">
<style type="text/css">
	.st0{fill:#FFFFFF;}
</style>
<g id="ВИВТ_ЦВЕТ">
</g>
<g id="Колледж_ЦВЕТ">
</g>
<g id="ВИВТ_Монохром">
</g>
<g id="Колледж_Монохром">
</g>
<g id="ВИВТ_на_Темном">
	<g>
		<path class="st0" d="M107.3,44.1V0h27.3c7.7,0,14.2,3.4,14.2,11.2c0,5.2-2.8,8.5-7,10c5,1.3,8.4,4.5,8.4,10.7
			c0,8.1-6.1,12.2-14.2,12.2C136,44.1,107.3,44.1,107.3,44.1z M118.1,9.4v8.5h15.6c2.4,0,4.2-1.8,4.2-4.4s-1.8-4.1-4.2-4.1
			C133.7,9.4,118.1,9.4,118.1,9.4z M118.1,25.8v8.9h16.4c2.8,0,4.6-1.3,4.6-4.4s-1.9-4.5-4.6-4.5H118.1z"/>
		<path class="st0" d="M34.5,21.2c4.2-1.5,7-4.8,7-10C41.5,3.4,35,0,27.3,0H10.1L0,13.7v30.4h28.6c8.1,0,14.2-4.1,14.2-12.2
			C42.8,25.7,39.5,22.5,34.5,21.2z M10.8,9.4h15.6c2.4,0,4.2,1.5,4.2,4.1c0,2.6-1.8,4.4-4.2,4.4H10.8V9.4z M27.2,34.7H10.8v-8.9
			h16.4c2.8,0,4.6,1.4,4.6,4.5S29.9,34.7,27.2,34.7z"/>
		<g>
			<polygon class="st0" points="63.8,11.9 63.8,0 53,0 53,26.6 			"/>
			<polygon class="st0" points="85.2,0 53,43.7 53,44.1 63.8,44.1 84.5,16.8 84.5,44.1 95.3,44.1 95.3,0 			"/>
		</g>
		<polygon class="st0" points="196.8,0 158.3,0 158.3,9.4 172.6,9.4 172.6,44.1 183.4,44.1 183.4,9.4 189.9,9.4 		"/>
	</g>
</g>
<g id="Колледж_на_Темном">
</g>
<g id="Со_слоганом">
</g>
<g id="Два_логотипа">
</g>
<g id="На_сувенирке">
</g>
<g id="Логотип_на_сайтах">
</g>
<g id="логотип_и_фирмстиль">
</g>
<g id="логотип_и_фирмстиль_x5F_градиент">
</g>
<g id="сувенирка">
</g>
<g id="английский_лого">
</g>
<g id="паттерн_из_лого">
</g>
</svg>
